<?xml version="1.0" standalone="no"?>
<!DOCTYPE svg PUBLIC "-//W3C//DTD SVG 20010904//EN"
 "http://www.w3.org/TR/2001/REC-SVG-20010904/DTD/svg10.dtd">
<svg version="1.0" xmlns="http://www.w3.org/2000/svg"
 width="860.000000pt" height="819.000000pt" viewBox="0 0 860.000000 819.000000"
 preserveAspectRatio="xMidYMid meet">

<g transform="translate(0.000000,819.000000) scale(0.100000,-0.100000)"
fill="#000000" stroke="none">
<path d="M3040 7453 c-91 -31 -167 -58 -170 -60 -2 -2 1 -12 8 -21 35 -50 89
-154 110 -211 88 -243 60 -471 -83 -659 -89 -118 -214 -210 -505 -372 -281
-156 -365 -213 -484 -328 -124 -120 -179 -208 -271 -437 -166 -410 -282 -582
-442 -658 -57 -27 -80 -32 -143 -32 -41 0 -91 4 -111 8 l-36 9 -6 -74 c-4 -40
-9 -123 -13 -184 l-7 -111 39 -6 c80 -14 230 -7 308 13 175 44 342 170 475
357 76 106 184 321 270 537 35 87 82 184 103 216 80 121 193 206 498 375 322
178 475 294 601 453 142 177 206 350 216 577 6 149 -10 272 -53 400 -32 97
-114 265 -128 264 -6 0 -85 -26 -176 -56z"/>
<path d="M5331 7413 c-86 -174 -123 -329 -124 -523 0 -205 48 -373 152 -533
134 -204 288 -331 641 -527 249 -138 373 -220 447 -296 79 -81 98 -114 192
-341 127 -306 227 -486 342 -617 149 -169 354 -266 562 -266 l90 0 -7 152
c-10 214 -8 208 -65 208 -106 0 -211 51 -299 144 -96 101 -174 244 -287 521
-107 263 -162 353 -294 478 -119 112 -216 176 -516 342 -206 114 -300 179
-395 275 -131 131 -186 248 -197 420 -9 151 33 319 112 450 19 32 35 60 35 63
0 7 -69 34 -215 83 -71 24 -130 44 -132 44 -2 0 -20 -35 -42 -77z"/>
<path d="M2531 4064 c-381 -81 -478 -660 -153 -904 61 -45 161 -80 232 -80
191 0 380 170 420 379 67 357 -192 671 -499 605z"/>
<path d="M5920 4069 c-126 -25 -244 -122 -306 -254 -134 -282 -6 -632 263
-715 82 -25 144 -25 224 -1 192 60 319 250 319 478 0 247 -154 453 -369 493
-61 11 -68 11 -131 -1z"/>
<path d="M4120 2820 c-232 -33 -413 -148 -499 -320 -49 -98 -65 -173 -58 -269
17 -222 221 -384 515 -408 l72 -6 0 -41 c-1 -93 -69 -172 -171 -196 -78 -19
-192 -8 -269 24 -101 44 -151 52 -196 35 -88 -33 -111 -147 -47 -227 74 -92
175 -133 344 -140 136 -5 226 10 392 66 l108 36 47 -18 c122 -47 184 -65 270
-76 191 -25 391 32 497 140 45 46 57 107 31 162 -36 76 -118 88 -224 33 -37
-19 -92 -39 -122 -46 -103 -22 -248 9 -318 68 -28 24 -35 38 -44 95 -6 36 -8
73 -5 81 4 10 29 17 74 22 165 18 295 67 377 145 127 120 175 348 104 500 -69
150 -260 274 -503 326 -85 19 -287 26 -375 14z"/>
</g>
</svg>
